# xmcd
#
# Track frame offsets:
#	150
#	15745
#	32050
#	49782
#	65670
#	78365
#	95017
#	114107
#	130992
#	144225
#	165077
#	180047
#	206900
#	223290
#	239787
#
# Disc length: 3437 seconds
#
# Revision: 0
# Processed by: cddbd v1.4PL0 Copyright (c) Steve Scherf et al.
# Submitted via: dBpowerAMP V4.0
#
DISCID=cd0d6b0f
DTITLE=Grant and Forsyth - New country love songs
DYEAR=2001
DGENRE=
TTITLE0=Love is all around
TTITLE1=Buy me a rose
TTITLE2=I'm amazed by you
TTITLE3=You got it
TTITLE4=True love ways
TTITLE5=When you say nothing at all
TTITLE6=Medley
TTITLE7=Let's make love
TTITLE8=Goodbey my love
TTITLE9=I do it for you
TTITLE10=Someboy to love
TTITLE11=Medley
TTITLE12=Wonderful tonight
TTITLE13=If I can't be with you
TTITLE14=You're in my heart
EXTD=
EXTT0=
EXTT1=
EXTT2=
EXTT3=
EXTT4=
EXTT5=
EXTT6=
EXTT7=
EXTT8=
EXTT9=
EXTT10=
EXTT11=
EXTT12=
EXTT13=
EXTT14=
PLAYORDER=
